<svg xmlns="http://www.w3.org/2000/svg" viewBox="0 0 512 512"><g fill="#b38a82"><path d="M290.104 167.518a7.501 7.501 0 0 1-7.403-6.355c-3.842-24.862 7.919-44.051 30.692-50.079a7.501 7.501 0 0 1 3.838 14.501c-15.396 4.075-22.394 15.896-19.706 33.287a7.5 7.5 0 0 1-7.421 8.646z"/><path d="M297.579 170.264a7.5 7.5 0 0 1-7.44-8.522c1.271-9.251 6.754-17.46 15.041-22.522 7.52-4.592 16.343-5.813 23.606-3.264a7.501 7.501 0 0 1-4.968 14.154c-3.008-1.056-7.157-.325-10.818 1.912-4.429 2.705-7.344 6.992-8 11.763a7.503 7.503 0 0 1-7.421 6.479zM172.61 276.265c-3.58 0-7.185-1.151-10.224-3.525-81.171-63.418-80.971-120.522-73.628-148.916 9.701-37.507 42.806-66.916 82.38-73.183 37.58-5.952 72.468 10.04 93.324 42.778 4.932 7.745 2.654 18.022-5.091 22.955-7.744 4.933-18.021 2.654-22.955-5.09-13.722-21.542-35.626-31.675-60.078-27.801-26.694 4.227-48.953 23.785-55.388 48.667-5.306 20.512-4.317 62.648 61.907 114.387 7.235 5.654 8.519 16.102 2.865 23.337-3.277 4.196-8.17 6.391-13.112 6.391z"/></g><path d="M172.61 276.265c-3.58 0-7.185-1.151-10.224-3.525-81.171-63.418-80.971-120.522-73.628-148.916 9.701-37.507 42.806-66.916 82.38-73.183 37.58-5.952 72.468 10.04 93.324 42.778 4.932 7.745 2.654 18.022-5.091 22.955-7.744 4.933-18.021 2.654-22.955-5.09-13.722-21.542-35.626-31.675-60.078-27.801-26.694 4.227-48.953 23.785-55.388 48.667-5.306 20.512-4.317 62.648 61.907 114.387 7.235 5.654 8.519 16.102 2.865 23.337-3.277 4.196-8.17 6.391-13.112 6.391z" opacity=".1"/><ellipse cx="65.54" cy="287.23" rx="65.54" ry="62.44" fill="#f5d7b7"/><path d="M79.903 226.313c-18.338 30.201-28.129 65.146-28.129 101.98 0 6.949.357 13.675 1.04 20.191a69.036 69.036 0 0 0 12.729 1.187c36.199 0 65.544-27.955 65.544-62.439 0-29.784-21.896-54.679-51.184-60.919z" fill="#f2caa7"/><path d="M105.468 296.988a7.502 7.502 0 0 1-6.833-4.398c-4.889-10.755-14.085-17.689-25.231-19.023-10.286-1.231-20.25 2.575-26.017 9.93a7.5 7.5 0 0 1-11.804-9.255c8.978-11.452 24.153-17.418 39.604-15.569 16.471 1.972 29.994 12.071 37.104 27.71a7.5 7.5 0 0 1-6.823 10.605z" fill="#dbb695"/><ellipse cx="446.46" cy="287.23" rx="65.54" ry="62.44" fill="#f5d7b7"/><path d="M432.097 226.313c18.338 30.201 28.129 65.146 28.129 101.98 0 6.949-.357 13.675-1.04 20.191a69.036 69.036 0 0 1-12.729 1.187c-36.199 0-65.544-27.955-65.544-62.439 0-29.784 21.896-54.679 51.184-60.919z" fill="#f2caa7"/><path d="M406.532 296.988a7.5 7.5 0 0 1-6.824-10.605c7.109-15.639 20.633-25.738 37.103-27.71 15.448-1.852 30.626 4.118 39.604 15.569a7.5 7.5 0 0 1-11.804 9.255c-5.767-7.355-15.736-11.16-26.017-9.93-11.146 1.334-20.342 8.268-25.23 19.023a7.502 7.502 0 0 1-6.832 4.398z" fill="#dbb695"/><path d="M98.87 200.272c11.111 22.128 30.636 46.78 63.516 72.468a16.556 16.556 0 0 0 10.224 3.525c4.942 0 9.835-2.194 13.113-6.391 5.653-7.235 4.37-17.684-2.865-23.337-34.208-26.726-51.008-50.888-58.527-70.833a199.617 199.617 0 0 0-12.351 10.807 196.064 196.064 0 0 0-13.11 13.761z" opacity=".1"/><path d="M438.058 328.293c0-100.795-81.51-175.856-182.058-175.856S73.942 227.498 73.942 328.293 155.452 462.584 256 462.584s182.058-33.496 182.058-134.291z" fill="#b38a82"/><path d="M300.124 224.074c-15.923 0-30.923 3.854-44.124 10.634-13.201-6.78-28.201-10.634-44.124-10.634-52.752 0-95.516 42.072-95.516 93.971 0 65.597 55.316 102.389 139.64 102.389s139.64-36.792 139.64-102.389c0-51.899-42.764-93.971-95.516-93.971z" fill="#f5d7b7"/><g fill="#f27281"><ellipse cx="177.06" cy="343.44" rx="29.13" ry="23.2"/><ellipse cx="334.94" cy="343.44" rx="29.13" ry="23.2"/></g><path d="M181.93 323.556a7.5 7.5 0 0 1-7.5-7.5v-12.503c0-4.142 3.357-7.5 7.5-7.5s7.5 3.358 7.5 7.5v12.503a7.5 7.5 0 0 1-7.5 7.5zM256 346.725c-11.655 0-21.103-9.448-21.103-21.103V310.28a5.76 5.76 0 0 1 5.761-5.761h30.684a5.76 5.76 0 0 1 5.761 5.761v15.342c0 11.655-9.448 21.103-21.103 21.103zm74.07-23.169a7.5 7.5 0 0 1-7.5-7.5v-12.503c0-4.142 3.357-7.5 7.5-7.5s7.5 3.358 7.5 7.5v12.503a7.5 7.5 0 0 1-7.5 7.5z" fill="#464d59"/><path d="M241.758 152.946c-93.891 6.709-167.816 79.357-167.816 175.347 0 100.796 81.51 134.291 182.058 134.291 1.748 0 3.489-.013 5.225-.033-164.975-94.862-91.283-260.7-19.467-309.605z" opacity=".1"/></svg>