<svg xmlns="http://www.w3.org/2000/svg" viewBox="0 0 207.964 207.964"><path d="M40.634 148.18c6.989 19.495-3.968 55.375-3.968 55.375h63.346V93.325l-69.52 13.325c.001-.001 3.823 23.903 10.142 41.53zM159.452 148.18c-6.989 19.495 3.969 55.375 3.969 55.375h-63.347V93.325l69.519 13.325c0-.001-3.821 23.903-10.141 41.53z" fill="#432b1f"/><path fill="#fdcc9b" d="M85.315 157.699h29.395v32.922H85.315z"/><path d="M85.315 161.577s12.365 7.874 29.395 6.05v-9.928H85.315v3.878z" fill="#fcbc85"/><ellipse cx="42.928" cy="106.649" rx="14.343" ry="16.364" fill="#fcbc85"/><ellipse cx="157.096" cy="106.649" rx="14.343" ry="16.364" fill="#fcbc85"/><path d="M157.038 75.394c0-24.103-17.637-41.741-57.025-41.741-39.39 0-57.026 17.637-57.026 41.741s-4.115 87.597 57.026 87.597c61.14-.001 57.025-63.493 57.025-87.597z" fill="#fdcc9b"/><ellipse cx="72.237" cy="102.731" rx="6.173" ry="6.761" fill="#3b2519"/><circle cx="69.545" cy="99.746" r="1.846" fill="#fff"/><path d="M62.362 88.154c2.918 1.118 7.606-3.798 18.334.478 1.956.78 3.124-6.668-8.377-6.668-9.957 0-11.721 5.515-9.957 6.19z" fill="#51362a"/><ellipse cx="128.55" cy="102.731" rx="6.173" ry="6.761" fill="#3b2519"/><circle cx="125.859" cy="99.746" r="1.847" fill="#fff"/><path d="M137.663 88.154c-2.919 1.118-7.605-3.798-18.335.478-1.955.78-3.123-6.668 8.378-6.668 9.957 0 11.72 5.515 9.957 6.19z" fill="#51362a"/><path d="M100.012 126.511c-6.1 0-9.774-4.556-9.774-2.352 0 2.205 1.764 6.394 9.774 6.394s9.773-4.189 9.773-6.394c.001-2.204-3.673 2.352-9.773 2.352zM100.012 146.782c-2.109 0-3.381-1.576-3.381-.813s.61 2.211 3.381 2.211 3.381-1.448 3.381-2.211-1.271.813-3.381.813z" fill="#fcbc85"/><path d="M100.012 141.165c-9.668 0-15.493-3.936-15.493-2.939 0 .998 2.796 4.924 15.493 4.924 12.697 0 15.492-3.926 15.492-4.924 0-.998-5.824 2.939-15.492 2.939z" fill="#f7945e"/><circle cx="64.298" cy="124.336" r="8.378" fill="#f9aa8d"/><circle cx="136.756" cy="124.336" r="8.377" fill="#f9aa8d"/><path d="M100.012 170.927v37.038H35.639c0-14.992 30.569-37.038 64.373-37.038zM100.012 170.927v37.038h64.372c0-14.992-30.568-37.038-64.372-37.038z" fill="#694b74"/><path d="M99.821 170.927c-7.271 0-14.715 1.005-21.933 2.72.049.063 8.006 10.214 21.933 10.214 12.898 0 21.472-8.693 22.715-10.03-7.46-1.831-15.181-2.904-22.715-2.904z" fill="#563c60"/><path d="M85.315 172.209s4.299 5.332 14.697 5.332 14.697-5.332 14.697-5.332-15.248-5.552-29.394 0z" fill="#fdcc9b"/><path d="M151.747 24.541C114.709-19.552 44.162-1.915 28.584 58.933c-15.577 60.847 12.05 89.247 12.05 89.247-10.594-35.859 14.11-72.933 35.274-73.374 21.165-.441 54.675-12.346 54.675-12.346s5.625 28.622 23.81 39.132c13.669 7.9 8.477 31.122 4.949 46.588 13.227-5.031 52.37-105.561-7.595-123.639z" fill="#51362a"/></svg>