<svg xmlns="http://www.w3.org/2000/svg" viewBox="0 0 512.001 512.001"><path d="M326.274 466.049l-31.092 31.092c-9.812 9.812-25.722 9.812-35.534 0-9.812-9.812-9.812-25.722 0-35.534l31.092-31.092c9.812-9.812 25.722-9.812 35.534 0 9.813 9.812 9.813 25.722 0 35.534z" fill="#b38a82"/><path d="M326.274 466.049l-31.092 31.092c-9.812 9.812-25.722 9.812-35.534 0-9.812-9.812-9.812-25.722 0-35.534l31.092-31.092c9.812-9.812 25.722-9.812 35.534 0 9.813 9.812 9.813 25.722 0 35.534z" opacity=".1"/><path d="M267.089 466.049l-31.092 31.092c-9.812 9.812-25.722 9.812-35.534 0-9.812-9.812-9.812-25.722 0-35.534l31.092-31.092c9.812-9.812 25.722-9.812 35.534 0 9.812 9.812 9.812 25.722 0 35.534z" fill="#b38a82"/><path d="M436.77 301.641c36.367 0 65.848 29.481 65.848 65.848s-29.481 65.848-65.848 65.848h-81.606c-22.718 0-41.133-18.416-41.133-41.133 0-19.884 14.109-36.473 32.863-40.301a31.55 31.55 0 0 1-6.004-18.556c0-17.51 14.194-31.705 31.705-31.705l64.175-.001v.16" fill="#d9809c"/><path d="M436.77 433.337a65.83 65.83 0 0 0 18.734-2.72c-76.21-9.884-86.444-109.383-70.41-128.976h-12.501c-17.51 0-31.705 14.194-31.705 31.705a31.552 31.552 0 0 0 6.005 18.556c-18.753 3.828-32.863 20.416-32.863 40.301 0 22.718 18.416 41.133 41.133 41.133h81.606v.001z" opacity=".1"/><g fill="#e4a2b7"><path d="M227.61 100.712c-30.599-4.491-58.201-16.474-82.049-35.624-23.361-18.757-35.407-38.402-38.542-43.976C99.784 8.251 83.491 3.69 70.628 10.925 57.766 18.162 53.204 34.454 60.44 47.316c4.354 7.739 18.961 31.453 46.06 54.784 3.016 2.597 1.088 7.548-2.89 7.411-19.48-.67-38.876-4.459-55.073-12.779-13.07-6.713-29.417-1.651-36.158 11.405-6.771 13.114-1.628 29.235 11.487 36.005 29.104 15.022 60.71 18.993 85.992 18.993a247.4 247.4 0 0 0 16.44-.551c23.907-1.596 48.284-6.729 68.244-14.156a231.964 231.964 0 0 0 25.983 5.26c1.29.185 2.571.276 3.837.276 13.017 0 24.404-9.521 26.392-22.751 2.188-14.561-8.576-28.362-23.144-30.501z"/><ellipse cx="264.127" cy="270.586" rx="215.105" ry="195.045"/></g><g fill="#dd8eab"><path d="M314.647 358.226a7.5 7.5 0 0 1-7.5-7.5v-18.264a7.5 7.5 0 0 1 15 0v18.264a7.5 7.5 0 0 1-7.5 7.5zM366.483 358.226a7.5 7.5 0 0 1-7.5-7.5v-18.264a7.5 7.5 0 0 1 15 0v18.264a7.5 7.5 0 0 1-7.5 7.5zM262.811 358.226a7.5 7.5 0 0 1-7.5-7.5v-18.264a7.5 7.5 0 0 1 15 0v18.264a7.5 7.5 0 0 1-7.5 7.5zM288.729 401.867a7.5 7.5 0 0 1-7.5-7.5v-18.264a7.5 7.5 0 0 1 15 0v18.264a7.5 7.5 0 0 1-7.5 7.5zM340.566 401.867a7.5 7.5 0 0 1-7.5-7.5v-18.264a7.5 7.5 0 0 1 15 0v18.264a7.5 7.5 0 0 1-7.5 7.5z"/></g><path d="M314.647 213.596c22.073 0 44.598 9.648 39.965 36.522-3.149 18.265-19.501 30.786-30.289 37.201a18.916 18.916 0 0 1-19.351 0c-10.788-6.415-27.141-18.935-30.289-37.201-4.633-26.875 17.892-36.522 39.964-36.522z" fill="#f7d88b"/><path d="M295.654 216.336c-14.026 4.488-24.233 14.861-20.97 33.782 3.149 18.265 19.501 30.786 30.289 37.201a18.91 18.91 0 0 0 19.216.074c-22.01-13.284-37.665-54.901-28.535-71.057z" fill="#f4cf7a"/><g fill="#f27281"><ellipse cx="217.126" cy="241.276" rx="35.983" ry="28.655"/><ellipse cx="412.17" cy="241.276" rx="35.983" ry="28.655"/></g><path d="M225.351 79.961C125.06 96.517 49.02 176.122 49.02 271.836c0 107.72 96.308 195.044 215.11 195.044 47.286 0 90.999-13.845 126.504-37.294C123.133 466.88 121.52 169.166 225.351 79.961z" fill="#dd8eab"/><path d="M132.135 301.641c36.367 0 65.848 29.481 65.848 65.848s-29.481 65.848-65.848 65.848H50.529c-22.718 0-41.133-18.416-41.133-41.133 0-19.884 14.109-36.473 32.863-40.301a31.55 31.55 0 0 1-6.004-18.556c0-17.51 14.194-31.705 31.705-31.705l64.175-.001v.16" fill="#d9809c"/><path d="M132.135 433.337a65.83 65.83 0 0 0 18.734-2.72c-76.21-9.884-86.444-109.383-70.41-128.976H67.958c-17.51 0-31.705 14.194-31.705 31.705a31.552 31.552 0 0 0 6.005 18.556c-18.753 3.828-32.863 20.416-32.863 40.301 0 22.718 18.416 41.133 41.133 41.133h81.606v.001z" fill="#d17597"/><path d="M314.647 206.096c-24.013 0-35.623 9.526-40.406 15.205-4.596 5.456-9.533 15.105-6.95 30.092 1.95 11.307 9.404 27.838 33.847 42.373a26.405 26.405 0 0 0 27.018 0c24.443-14.536 31.898-31.066 33.847-42.373 2.583-14.985-2.354-24.635-6.949-30.091-4.783-5.68-16.393-15.206-40.407-15.206zm32.574 42.748c-2.696 15.638-17.905 26.78-26.731 32.028a11.419 11.419 0 0 1-11.684 0c-8.826-5.249-24.036-16.389-26.732-32.028-1.306-7.573-.115-13.421 3.64-17.879 5.283-6.271 15.829-9.868 28.934-9.868s23.651 3.597 28.935 9.868c3.753 4.458 4.944 10.306 3.638 17.879zm34.349-38.749c0-5.308 4.319-9.627 9.627-9.627s9.626 4.319 9.626 9.627a7.5 7.5 0 0 0 15 0c0-13.579-11.047-24.628-24.627-24.628-13.58 0-24.628 11.048-24.628 24.628a7.502 7.502 0 0 0 15.002 0zm-168.098 0a7.5 7.5 0 0 0 15 0c0-5.308 4.319-9.627 9.627-9.627s9.626 4.319 9.626 9.627a7.5 7.5 0 0 0 15 0c0-13.579-11.047-24.628-24.627-24.628s-24.626 11.049-24.626 24.628zM482.69 310.319a185.482 185.482 0 0 0 4.049-38.483c0-54.241-23.25-105.194-65.467-143.473-42.011-38.092-97.819-59.07-157.144-59.07-26.189 0-52.202 4.246-76.632 12.369a161.397 161.397 0 0 1-37.24-22.422c-22.316-17.918-33.733-36.527-36.701-41.805C104.305.99 83.398-4.861 66.95 4.388c-16.445 9.252-22.299 30.16-13.047 46.606 4.696 8.347 17.533 28.901 40.617 50.438-16.296-1.488-30.867-5.367-42.557-11.371-16.864-8.66-37.61-2.096-46.248 14.635-4.194 8.123-4.974 17.393-2.195 26.103s8.783 15.814 16.906 20.007c15.712 8.11 33.365 13.779 52.608 16.923-20.44 30.989-31.516 66.747-31.516 104.105 0 10.193.85 20.422 2.517 30.481-9.286 7.176-15.283 18.412-15.283 31.03 0 4.898.896 9.672 2.629 14.143-17.539 7.535-29.488 25.038-29.488 44.714 0 26.817 21.817 48.634 48.634 48.634h81.606c2.861 0 5.678-.182 8.454-.502 15.521 9.44 32.122 16.996 49.471 22.566-2.903 4.944-4.455 10.588-4.455 16.473 0 8.714 3.394 16.908 9.556 23.071 6.36 6.36 14.715 9.541 23.071 9.541s16.709-3.18 23.07-9.541l7.467-7.467a32.568 32.568 0 0 0 5.578 7.467c6.162 6.162 14.355 9.556 23.071 9.556 8.714 0 16.907-3.394 23.07-9.556l31.093-31.093a32.406 32.406 0 0 0 6.001-8.267c2.485-.79 4.962-1.609 7.421-2.482a7.501 7.501 0 0 0-5.017-14.137c-23.477 8.331-48.252 12.656-73.671 12.891l-.079.001c-.702.006-1.402.022-2.105.022-20.086 0-39.809-2.582-58.702-7.604a7.262 7.262 0 0 0-.525-.143c-15.152-4.068-29.766-9.711-43.6-16.86 25.971-11.302 44.181-37.201 44.181-67.284 0-40.444-32.904-73.349-73.349-73.349H67.958c-3.384 0-6.668.431-9.803 1.241a171.661 171.661 0 0 1-1.636-23.546c0-37.928 12.443-74.111 35.223-104.636a7.505 7.505 0 0 0 1.115-1.454c11.644-15.288 25.888-29.134 42.497-41.016a7.5 7.5 0 1 0-8.727-12.199c-16.894 12.087-31.539 26.064-43.689 41.476-20.631-2.562-39.328-8.115-55.631-16.529a19.095 19.095 0 0 1-9.496-11.238 19.098 19.098 0 0 1 1.232-14.661c4.852-9.397 16.545-13.065 26.066-8.174 16.062 8.25 35.658 12.826 58.242 13.603 5.047.163 9.475-2.748 11.31-7.442 1.835-4.697.553-9.858-3.269-13.148-26.497-22.814-40.695-46.164-44.416-52.777-5.196-9.237-1.909-20.98 7.328-26.177 9.238-5.196 20.98-1.909 26.178 7.328 3.301 5.869 15.969 26.544 40.383 46.147a177.475 177.475 0 0 0 27.37 18.087 227.185 227.185 0 0 0-9.46 4.338 7.5 7.5 0 0 0-3.438 10.034 7.5 7.5 0 0 0 10.034 3.438c30.122-14.746 64.271-22.543 98.758-22.543 114.477 0 207.609 84.132 207.609 187.543 0 32.522-9.36 64.561-27.071 92.651-17.242 27.352-42.04 50.548-71.71 67.084a7.5 7.5 0 0 0-2.9 10.202 7.499 7.499 0 0 0 10.202 2.901 226.425 226.425 0 0 0 6.599-3.837h49.91c40.444 0 73.349-32.904 73.349-73.349.001-22.28-10.168-43.288-27.427-57.167zM269.421 474.324a243.837 243.837 0 0 0 42.624-4.652l-22.166 22.166A17.51 17.51 0 0 1 277.416 497a17.506 17.506 0 0 1-12.463-5.163 17.578 17.578 0 0 1-4.675-8.369l9.143-9.144zm-63.978-7.057a242.272 242.272 0 0 0 43.198 6.623l-17.947 17.948A17.51 17.51 0 0 1 218.231 497a17.506 17.506 0 0 1-12.463-5.163 17.512 17.512 0 0 1-5.163-12.463c-.001-4.547 1.723-8.821 4.838-12.107zM67.958 309.141h62.627c.97.204 2.035.21 3.009.018 31.501.779 56.887 26.646 56.887 58.33 0 32.173-26.175 58.348-58.348 58.348H50.529c-18.545 0-33.634-15.087-33.634-33.634 0-15.688 10.978-29.369 26.198-32.801h37.04a7.5 7.5 0 0 0 0-15H46.432a24.015 24.015 0 0 1-2.677-11.056c-.001-13.346 10.857-24.205 24.203-24.205zM436.77 425.837h-28.049c19.386-15.089 35.909-33.16 48.636-53.349 9.098-14.432 16.163-29.833 21.084-45.8 10.58 10.814 16.675 25.426 16.675 40.801.001 32.174-26.173 58.348-58.346 58.348z"/></svg>