<svg xmlns="http://www.w3.org/2000/svg" viewBox="0 0 512.001 512.001"><path d="M283.211 115.867c-5.567-35.233-20.077-69.598-40.857-96.767-9.911-12.961-28.451-15.429-41.406-5.517-11.247 8.602-14.592 23.704-8.799 36.015.477 1.014-.689 2.008-1.616 1.377-14.4-9.805-29.799-17.821-45.547-23.569-15.265-5.572-32.919 1.848-38.624 17.064-5.797 15.463 2.193 32.628 17.685 38.183 2.474.887 4.938 1.855 7.387 2.9 1.915.817 1.05 3.695-.999 3.325-8.534-1.542-17.079-2.539-25.536-2.952-16.279-.802-30.148 11.767-30.945 28.058-.797 16.294 11.766 30.149 28.059 30.945 24.525 1.2 50.284 9.29 72.531 22.781 20.231 12.268 32.367 26.126 35.419 34.416 4.397 11.943 15.696 19.34 27.721 19.34a29.492 29.492 0 0 0 13.493-3.279c8.785-1.222 16.927-6.364 21.643-14.674 12.05-21.232 15.837-53.177 10.391-87.646z" fill="#f27281"/><path d="M111.86 145.777c21.474 2.607 43.399 10.235 62.686 21.93 20.231 12.268 32.367 26.126 35.419 34.416 4.397 11.943 15.696 19.34 27.721 19.34a29.492 29.492 0 0 0 13.493-3.279c8.785-1.222 16.927-6.364 21.643-14.674 12.049-21.23 15.836-53.176 10.39-87.645a218.825 218.825 0 0 0-5.738-25.897 200.965 200.965 0 0 0-24.716-1.542c-54.831-.026-104.545 21.852-140.898 57.351z" fill="#ea6376"/><path d="M265.052 110.23c-111.359-.056-201.65 90.201-201.65 201.546 0 41.103-16.844 111.016-16.844 111.016-6.678 37.857 18.598 73.959 56.455 80.638 37.895 5.617 62.21-24.276 74.751-46.367 3.332-5.869 12.078-5.113 14.347 1.243 9.614 26.925 35.342 46.194 65.569 46.194 36.266 0 54.382-24.434 62.872-42.784 2.626-5.674 10.778-5.663 13.388.019 8.429 18.348 26.495 42.765 62.95 42.765 38.442 0 69.604-31.163 69.604-69.604V313.705c.001-111.585-89.857-203.419-201.442-203.475z" fill="#ebecec"/><path d="M345.333 382.73c-15.153-19.029-19.519-37.225-22.127-48.098l-.055-.228c-2.234-9.312-11.295-15.175-20.603-13.593-9.305-1.579-18.368 4.283-20.602 13.593l-.055.228c-2.608 10.872-6.974 29.069-22.127 48.098-6.222 7.814-4.932 19.193 2.883 25.416a18.01 18.01 0 0 0 11.255 3.939c5.319 0 10.589-2.336 14.16-6.822a144.05 144.05 0 0 0 14.486-22.015 144.174 144.174 0 0 0 14.486 22.015c3.571 4.485 8.84 6.822 14.16 6.822 3.949 0 7.926-1.288 11.255-3.939 7.816-6.224 9.107-17.602 2.884-25.416z" fill="#f27281"/><path d="M323.207 334.633l-.055-.228c-2.234-9.312-11.295-15.175-20.603-13.593-9.305-1.579-18.368 4.283-20.602 13.593l-.055.228c-1.36 5.671-3.216 13.344-6.814 22.079a28.148 28.148 0 0 0 18.145 6.598h18.118a32.164 32.164 0 0 0 18.879-6.121c-3.728-8.933-5.628-16.783-7.013-22.556z" opacity=".1"/><g fill="#f27281"><ellipse cx="206.589" cy="272.827" rx="33.943" ry="27.03"/><ellipse cx="390.567" cy="272.827" rx="33.943" ry="27.03"/></g><path d="M361.382 316.869h-92.613v-38.373c0-11.672 9.462-21.134 21.134-21.134h19.714c29.377 0 54.542 21.027 59.764 49.936.899 4.986-2.933 9.571-7.999 9.571z" fill="#f7d88b"/><path d="M341.078 316.869h-72.309v7.444c0 14.122 11.449 25.571 25.571 25.571h16.39c14.117 0 26.211-10.105 28.72-23.997l1.628-9.018z" fill="#eac268"/><path d="M207.467 118.561C124.164 143.307 63.402 220.439 63.402 311.776c0 41.103-16.844 111.016-16.844 111.016-6.678 37.858 18.598 73.96 56.455 80.638 22.956 3.402 40.92-6.232 54.31-19.262-50.432-10.144-4.006-72.371-14.692-121.526-21.124-97.172-1.425-198.757 64.836-244.081z" opacity=".08"/><path d="M70.902 311.776c0-51.85 20.196-100.59 56.868-137.244a197.353 197.353 0 0 1 17.891-15.842c.209-.141.403-.299.598-.461 33.835-26.265 75.163-40.5 118.688-40.5h.102c54.675.028 107.111 23.627 143.866 64.746a7.5 7.5 0 0 0 11.184-9.996c-34.273-38.344-81.223-62.531-131.447-68.362-6.803-32.682-21.008-64.299-40.339-89.573-6.01-7.86-14.722-12.908-24.529-14.215-9.805-1.303-19.535 1.284-27.391 7.295-9.215 7.048-14.339 17.899-14.503 29.001-11.157-6.554-22.655-12.003-34.332-16.265-19.481-7.113-41.112 2.524-48.218 21.477-3.51 9.364-3.129 19.515 1.072 28.582a37.292 37.292 0 0 0 5.033 8.023l-.176-.009c-9.879-.483-19.353 2.907-26.685 9.554-7.332 6.647-11.637 15.75-12.121 25.63-.998 20.398 14.786 37.805 35.185 38.803 7.918.387 15.975 1.541 24.076 3.423a213.937 213.937 0 0 0-8.559 8.081C77.659 203.41 55.902 255.92 55.902 311.777c0 39.728-16.469 108.568-16.635 109.259-.036.15-.068.302-.094.454-3.774 21.393 1.704 43.511 15.029 60.682a7.487 7.487 0 0 0 5.931 2.902 7.498 7.498 0 0 0 5.92-12.097c-10.69-13.775-15.111-31.498-12.146-48.662 1.254-5.243 16.995-71.812 16.995-112.539zm31.479-174.34c-12.137-.594-21.528-10.95-20.935-23.088a21.895 21.895 0 0 1 7.213-15.249c4.363-3.956 10.004-5.978 15.875-5.685 8.048.394 16.314 1.35 24.566 2.841a9.246 9.246 0 0 0 10.508-6.446 9.236 9.236 0 0 0-5.229-11.156 143.978 143.978 0 0 0-7.799-3.062c-5.597-2.007-10.057-6.084-12.558-11.48-2.5-5.395-2.726-11.436-.636-17.01 4.157-11.084 17.45-16.878 29.03-12.652 15.057 5.496 29.827 13.142 43.899 22.725a8.623 8.623 0 0 0 10.424-.567 8.62 8.62 0 0 0 2.198-10.203c-4.379-9.307-1.617-20.604 6.57-26.865 4.675-3.576 10.462-5.122 16.297-4.341a21.889 21.889 0 0 1 14.595 8.458c17.152 22.424 29.964 50.265 36.625 79.25-2.65-.104-5.304-.176-7.966-.177h-.109c-45.652 0-89.066 14.543-124.967 41.426-12.605-3.845-25.234-6.115-37.601-6.719zm339.641 64.293a7.501 7.501 0 0 0-12.733 7.93c19.434 31.2 29.706 67.178 29.706 104.046v121.19c0 34.245-27.86 62.105-62.105 62.105-31.816 0-48.087-20.88-56.134-38.396-2.444-5.319-7.614-8.629-13.494-8.638h-.022c-5.87 0-11.039 3.294-13.494 8.6C305.634 476.099 289.321 497 257.681 497c-26.192 0-49.704-16.564-58.507-41.216-2.048-5.735-7.1-9.626-13.186-10.155-6.082-.531-11.739 2.433-14.747 7.732-22.726 40.028-48.977 45.309-67.029 42.665a62.226 62.226 0 0 1-15.566-4.936 7.504 7.504 0 0 0-9.978 3.599 7.502 7.502 0 0 0 3.598 9.978 77.207 77.207 0 0 0 19.647 6.182c32.083 4.757 61.337-13.03 82.372-50.082.067-.118.13-.212.404-.194.275.024.314.131.358.256 10.929 30.607 40.118 51.172 72.632 51.172 30.777 0 55.466-16.638 69.562-46.88 13.985 30.232 38.71 46.88 69.647 46.88 42.516 0 77.104-34.59 77.104-77.105V313.704c.003-39.673-11.053-78.394-31.97-111.975zm-55.079 49.182a7.5 7.5 0 0 0 7.5-7.5c0-13.044-10.612-23.655-23.656-23.655-13.044 0-23.656 10.611-23.656 23.655a7.5 7.5 0 0 0 7.5 7.5 7.5 7.5 0 0 0 7.5-7.5c0-4.773 3.883-8.655 8.656-8.655 4.773 0 8.656 3.883 8.656 8.655a7.5 7.5 0 0 0 7.5 7.5zm-160.572-31.155c-13.044 0-23.656 10.611-23.656 23.655a7.5 7.5 0 0 0 7.5 7.5 7.5 7.5 0 0 0 7.5-7.5c0-4.773 3.883-8.655 8.656-8.655s8.656 3.883 8.656 8.655c0 4.143 3.358 7.5 7.5 7.5s7.5-3.357 7.5-7.5c-.001-13.044-10.612-23.655-23.656-23.655zM346.83 327.221l.515-2.852h14.037a15.59 15.59 0 0 0 11.992-5.607 15.589 15.589 0 0 0 3.387-12.799c-5.872-32.508-34.11-56.102-67.143-56.102h-19.714c-15.789 0-28.634 12.846-28.634 28.635v45.817c0 8.923 3.558 17.026 9.323 22.981-3.878 11.447-9.358 21.553-16.692 30.764-8.788 11.036-6.96 27.165 4.079 35.956a25.672 25.672 0 0 0 15.926 5.57c7.846 0 15.146-3.518 20.028-9.649a154.14 154.14 0 0 0 8.619-11.955 153.948 153.948 0 0 0 8.619 11.955c4.883 6.132 12.182 9.649 20.027 9.649a25.674 25.674 0 0 0 15.927-5.571c11.037-8.79 12.866-24.919 4.078-35.955-7.123-8.945-12.495-18.712-16.344-29.725a36.617 36.617 0 0 0 11.97-21.112zm-7.364 60.182c3.636 4.566 2.879 11.24-1.688 14.877a10.467 10.467 0 0 1-6.583 2.306 10.544 10.544 0 0 1-8.293-3.993 137.443 137.443 0 0 1-13.735-20.872 7.501 7.501 0 0 0-13.236 0 137.358 137.358 0 0 1-13.736 20.873 10.542 10.542 0 0 1-8.293 3.992c-2.412 0-4.689-.798-6.582-2.306-4.567-3.637-5.324-10.31-1.688-14.877 7.686-9.652 13.597-20.129 17.942-31.826a32.915 32.915 0 0 0 10.764 1.808h16.39c3.764 0 7.411-.576 10.854-1.64 4.336 11.621 10.227 22.04 17.884 31.658zm-63.194-63.034h55.831l-.033.186a21.67 21.67 0 0 1-21.34 17.83h-16.39c-9.946 0-18.038-8.077-18.068-18.016zm-.003-15v-30.873c0-7.519 6.116-13.635 13.634-13.635h19.714c25.771 0 47.802 18.408 52.383 43.77a.592.592 0 0 1-.136.513c-.188.226-.409.226-.481.226H276.27v-.001z"/></svg>