<svg xmlns="http://www.w3.org/2000/svg" viewBox="0 0 512 512"><path d="M83.38 263.528l-13.097 3.553A163.294 163.294 0 0 0 4.21 302.932c-5.613 5.017-5.613 13.801 0 18.819a163.308 163.308 0 0 0 66.073 35.852l13.096 3.553.001-97.628z" fill="#464d59"/><path d="M217.219 234.492h69.154c47.01 0 85.12-38.109 85.12-85.12 0-47.01-38.109-85.12-85.12-85.12-47.01 0-85.12 38.109-85.12 85.12v69.154c.001 8.818 7.149 15.966 15.966 15.966z" fill="#abdfeb"/><path d="M217.219 234.492h69.154c47.01 0 85.12-38.109 85.12-85.12 0-47.01-38.109-85.12-85.12-85.12-47.01 0-85.12 38.109-85.12 85.12v69.154c.001 8.818 7.149 15.966 15.966 15.966z" fill="#8bcdd8"/><path d="M113.589 501.115a18.794 18.794 0 0 1-11.289-3.759c-8.353-6.242-10.062-18.074-3.819-26.427 14.331-19.174 14.331-37.882 14.331-66.201 0-10.427 8.453-18.881 18.881-18.881s18.881 8.453 18.881 18.881c0 30.639 0 59.579-21.847 88.808-3.707 4.961-9.388 7.579-15.138 7.579z" fill="#464d59"/><path d="M131.693 385.848c-10.427 0-18.881 8.453-18.881 18.881 0 12.303-.002 22.791-1.177 32.292a115.535 115.535 0 0 0 36.496 10.986c2.435-14.18 2.443-28.532 2.443-43.278 0-10.428-8.454-18.881-18.881-18.881z" opacity=".14"/><g fill="#464d59"><path d="M187.049 501.115a18.79 18.79 0 0 1-11.289-3.759c-8.353-6.243-10.062-18.074-3.819-26.427 14.333-19.174 14.333-37.883 14.333-66.201 0-10.427 8.453-18.881 18.881-18.881s18.881 8.453 18.881 18.881c0 30.639 0 59.579-21.848 88.808-3.708 4.961-9.388 7.579-15.139 7.579zM260.511 501.115a18.794 18.794 0 0 1-11.289-3.759c-8.352-6.242-10.062-18.074-3.819-26.427 14.331-19.174 14.331-37.882 14.331-66.201 0-10.427 8.453-18.881 18.881-18.881s18.881 8.453 18.881 18.881c0 30.639 0 59.579-21.847 88.808-3.707 4.961-9.388 7.579-15.138 7.579z"/></g><path d="M278.615 385.848c-10.427 0-18.881 8.453-18.881 18.881 0 17.664-.001 31.588-3.479 44.219h38.634c2.601-14.486 2.607-29.147 2.607-44.219 0-10.428-8.454-18.881-18.881-18.881z" opacity=".14"/><path d="M333.973 501.115a18.792 18.792 0 0 1-11.289-3.759c-8.353-6.242-10.062-18.074-3.819-26.427 14.332-19.174 14.332-37.882 14.332-66.201 0-10.427 8.453-18.881 18.881-18.881s18.881 8.453 18.881 18.881c0 30.639 0 59.579-21.847 88.808-3.709 4.961-9.389 7.579-15.139 7.579z" fill="#464d59"/><path d="M352.077 385.848c-10.427 0-18.881 8.453-18.881 18.881 0 16.11-.004 29.108-2.642 40.852 14.645-3.6 28.2-9.97 40.077-18.527.325-7.359.327-14.79.327-22.325-.001-10.428-8.454-18.881-18.881-18.881z" opacity=".14"/><path d="M302.688 428.701H162.993c-64.264 0-116.359-52.096-116.359-116.359 0-64.264 52.096-116.359 116.359-116.359h139.695c64.263 0 116.359 52.096 116.359 116.359s-52.096 116.359-116.359 116.359z" fill="#f7d88b"/><path d="M205.155 385.848c-10.427 0-18.881 8.453-18.881 18.881 0 17.663-.001 31.588-3.479 44.219h38.634c2.601-14.486 2.607-29.147 2.607-44.219-.001-10.428-8.454-18.881-18.881-18.881z" opacity=".14"/><path d="M162.993 195.982c-2.258 0-4.498.071-6.724.198-45.021 55.158-42.594 176.813 20.578 232.521h106.86c-63.246-55.773-65.607-177.654-20.42-232.719H162.993z" fill="#464d59"/><path d="M302.688 195.982h-96.975c-9.692 17.07-15.127 36.219-15.127 56.448 0 71.741 68.333 129.9 152.627 129.9 21.03 0 41.065-3.621 59.295-10.169 10.498-17.481 16.54-37.944 16.54-59.819-.001-64.264-52.097-116.36-116.36-116.36z" opacity=".05"/><path d="M199.099 234.492h-69.154c-47.01 0-85.12-38.109-85.12-85.12 0-47.01 38.109-85.12 85.12-85.12 47.01 0 85.12 38.109 85.12 85.12v69.154c-.001 8.818-7.149 15.966-15.966 15.966z" fill="#abdfeb"/><ellipse cx="359.37" cy="229.59" rx="152.63" ry="129.9" fill="#f7d88b"/><g fill="#f27281"><ellipse cx="291.37" cy="227.54" rx="29.564" ry="23.543"/><ellipse cx="451.62" cy="227.54" rx="29.564" ry="23.543"/></g><g fill="#464d59"><path d="M322.672 209.424a7.499 7.499 0 0 1-7.5-7.5 6.579 6.579 0 0 0-6.571-6.571 6.579 6.579 0 0 0-6.572 6.571c0 4.143-3.357 7.5-7.5 7.5s-7.5-3.357-7.5-7.5c0-11.895 9.678-21.571 21.572-21.571s21.571 9.677 21.571 21.571a7.5 7.5 0 0 1-7.5 7.5zM448.458 209.424a7.499 7.499 0 0 1-7.5-7.5 6.579 6.579 0 0 0-6.571-6.571 6.579 6.579 0 0 0-6.572 6.571c0 4.143-3.357 7.5-7.5 7.5s-7.5-3.357-7.5-7.5c0-11.895 9.678-21.571 21.572-21.571 11.895 0 21.571 9.677 21.571 21.571a7.5 7.5 0 0 1-7.5 7.5zM371.493 232.671a27.3 27.3 0 0 1-20.58-9.371 7.5 7.5 0 0 1 11.307-9.857 12.303 12.303 0 0 0 9.273 4.229 12.3 12.3 0 0 0 9.273-4.229 7.501 7.501 0 0 1 11.307 9.857 27.3 27.3 0 0 1-20.58 9.371zM305.577 134.601a7.502 7.502 0 0 1-7.406-6.381c-2.525-16.723-2.156-87.568 46.68-102.746 3.955-1.231 8.158.982 9.388 4.937s-.98 8.158-4.936 9.388c-15.621 4.855-26.588 18.494-32.594 40.538-5.003 18.362-4.957 37.356-3.705 45.644a7.5 7.5 0 0 1-7.427 8.62z"/><circle cx="347.08" cy="32.635" r="21.751"/><path d="M413.15 134.601a7.502 7.502 0 0 1-7.406-6.381c-2.525-16.723-2.156-87.568 46.68-102.746 3.953-1.231 8.158.982 9.388 4.937a7.5 7.5 0 0 1-4.936 9.388c-15.622 4.855-26.588 18.494-32.594 40.538-5.003 18.361-4.957 37.356-3.705 45.644a7.5 7.5 0 0 1-7.427 8.62z"/><circle cx="454.65" cy="32.635" r="21.751"/></g></svg>