<svg version="1.0" xmlns="http://www.w3.org/2000/svg" viewBox="0 0 199 254"><path d="M5.8 1.6C-.3 4.9 0-2.2 0 127c0 103.6.2 118.5 1.5 121 3.3 6.3-1.5 6 98 6s94.7.3 98-6c1.3-2.5 1.5-17.4 1.5-121 0-129.7.4-122.2-6-125.5C188.7-.7 9.9-.7 5.8 1.6zM188.1 3c5.1 2.8 4.9-1.9 4.9 121.9 0 87-.3 115.6-1.2 117.6-2.6 5.7.8 5.5-94.3 5.5-94.1 0-91.8.1-94.5-4.9-.7-1.3-1-40.5-1-118.6V7.8l2.9-2.9L7.8 2H97c59.2 0 89.8.3 91.1 1z"/><path d="M26.3 18.5c-.7.8-1.3 1.8-1.3 2.3 0 .6-1.2 1.7-2.6 2.7-2.7 1.8-5.9 7.9-4.9 9.5.4.6 2.1 1 4 1 2.7 0 3.4-.4 3.7-2.3.2-1.4 1.1-2.3 2.6-2.5 3.9-.6 2.7 3.3-2.2 6.8-4.5 3.3-8.6 9.3-8.6 12.9 0 2 .5 2.1 11 2.1h11v-4c0-3.9-.1-4-3.6-4h-3.6l3.7-4.1c3.4-3.8 3.7-4.6 3.2-8.6-.5-4.5-2.9-8.3-5.4-8.3-.7 0-1.3-.5-1.3-1.1 0-1.3-2.5-3.9-3.7-3.9-.4.1-1.4.7-2 1.5zm8.9 6.2c2.2 2 3.1 7.5 1.7 10.7-.7 1.4-3 3.8-5.2 5.3l-4.1 2.8 5.2.3c5 .3 5.2.4 5.2 3.3V50H27.9c-8.8 0-10-.2-9.5-1.6.3-.9.6-2.2.6-3 0-.8 2.7-4.1 6.1-7.3 6.8-6.5 7.6-9.6 2.4-9.6-2.3 0-3.1.5-3.3 2.2-.3 1.7-1 2.3-2.8 2.3-4.1 0-2.8-6 1.8-8.6 2.8-1.5 10.1-1.3 12 .3zM86 34v5h-8v4.7c0 4.1.5 5.2 3.6 8.4l3.6 3.7-5.8 1.7c-13.2 3.8-23.2 11.4-28.3 21.3-2.9 5.6-5.1 15.4-5.1 22.6 0 5.8.1 6.1 7.1 15.3l7.2 9.3h10.3l-7.6 7.7c-11.2 11.5-16.6 22.9-19 40.3l-1.1 7.4 7.8 7.8 7.8 7.8H148v-32.1l-6.2-7.4c-3.7-4.4-7-7.5-8.1-7.5-1.5 0-.7-1.3 3.4-5.8 12.9-14.1 16.6-33 10-51-3.1-8.4-6.9-14.1-15.5-23.3-4.5-4.7-10.8-12.3-14.1-16.9-3.3-4.6-9.3-11.9-13.4-16.2L96.8 29H86v5zm10 2v5h4.5c4.5 0 4.5 0 4.5 3.5s0 3.5-4.5 3.5H96v4c0 3.9-.1 4-3.5 4-3.5 0-3.5 0-3.5-4.5V47h-4.5c-4.3 0-4.5-.1-4.5-3 0-2.8.2-3 4-3h4V31h8v5zm20.3 23.8c7.8 4.2 12.1 9.7 13.6 17.2 3.3 16.8 3 32.4-.8 39.7-3.6 7.1-22.2 23.8-33.6 30.3-3 1.7-5.5 3.6-5.5 4.1 0 .5 9.2.9 22 .9h22v29H45.7l.6-6.8c1.3-14 7-26.9 16-36.8 3.3-3.5 11.1-10.3 17.4-15 18.3-13.6 24.3-20.5 24.3-28 0-4.2-2.6-7.7-7.7-10.3-3.3-1.7-12.1-1.4-15.4.6-3.3 2-6.4 8.6-7.4 16l-.7 5.3H47.7l.6-7.3c1.9-21.6 14.7-36.1 35.5-40 2.9-.6 3.5-.3 6 3.3 2.6 3.9 2.8 3.9 9 4h6.2V55.8l3.3.7c1.7.4 5.4 1.9 8 3.3zM162 201.5v4.5h7.2l-3.6 4c-2.8 3.1-3.6 4.8-3.6 7.9 0 4.1 3.1 9.1 5.6 9.1.8 0 1.4.5 1.4 1.1 0 1.1 2.5 3.9 3.5 3.9.8 0 3.5-2.7 3.5-3.5 0-.3 1.6-2.1 3.5-3.9 2.6-2.4 3.5-4.2 3.5-6.5 0-2.8-.3-3.1-3.3-3.1-2.4 0-3.5.6-4.2 2.2-1.2 2.6-2.5 3.1-4.5 1.8-1.2-.9-.4-2.1 4.7-6.8 5.5-5.2 8.3-9.8 8.3-13.8 0-1.1-2.4-1.4-11-1.4h-11v4.5zm19.8.5c-.8 3.1-2.5 5.3-6.9 9.2-6.4 5.5-7.4 8.4-3.4 9.4 2.7.7 5.5-1 5.5-3.2 0-.8 1-1.4 2.5-1.4 3.2 0 3.3 2.9.2 6.6-1.8 2.1-3.4 2.7-7.4 3-6.5.4-8.8-1.7-8.8-8.3 0-4.6 1-6 7.5-10.5 2.5-1.7 2.5-1.7-2.7-1.7l-5.3-.1v-7h19.8l-1 4z"/></svg>
