<svg xmlns="http://www.w3.org/2000/svg" viewBox="0 0 48 48">
    <path d="M37 24h-6.938A6.063 6.063 0 0 1 24 17.937V.575c0-.219.262-.336.422-.183L37 12z" fill="#f44336"/>
    <path d="M37 24h-6.938c-1.433 0-2.753-.5-3.792-1.332L37 12z" fill="#ad1457"/>
    <path d="M11 24h6.938A6.063 6.063 0 0 1 24 30.063v17.363a.251.251 0 0 1-.422.183L11 36z" fill="#8bc34a"/>
    <path d="M11 24h6.938c1.433 0 2.753.5 3.792 1.332L11 36z" fill="#009688"/>
    <path d="M24 11v6.938A6.063 6.063 0 0 1 17.937 24H.575c-.219 0-.336-.262-.183-.422L12 11z" fill="#ffc107"/>
    <path d="M24 11v6.938c0 1.433-.5 2.753-1.332 3.792L12 11z" fill="#ff9800"/>
    <path d="M24 37v-6.938A6.063 6.063 0 0 1 30.063 24h17.363c.219 0 .332.262.183.422L36 37z" fill="#448aff"/>
    <path d="M24 37v-6.938c0-1.433.5-2.753 1.332-3.792L36 37z" fill="#1565c0"/>
</svg>
