<svg xmlns="http://www.w3.org/2000/svg" viewBox="0 0 511.997 511.997"><path d="M382.355 429.742H26.422c-11.834 0-20.764-10.743-18.6-22.378 8.43-45.332 47.984-78.21 94.094-78.21h280.44v100.588h-.001z" fill="#f5d7b7"/><path d="M101.916 329.154c-46.11 0-85.664 32.878-94.094 78.21-2.163 11.635 6.766 22.378 18.6 22.378h295.281c-71.082-11.285-90.637-57.97-80.509-100.588H101.916z" fill="#f2caa7"/><path d="M343.323 230.922c0 46.185-21.835 87.452-56.092 114.72-32.081 0-39.969 33.949-98.047 33.949-85.129 0-154.139-66.561-154.139-148.668s69.01-148.669 154.139-148.669 154.139 66.561 154.139 148.668z" fill="#b38a82"/><path d="M467.034 191.965a5.622 5.622 0 0 1 4.92-2.937h.032c17.956 0 32.511-14.556 32.511-32.511 0-18.705-15.797-33.721-34.778-32.434-15.703 1.065-28.557 13.521-30.086 29.186-.479 4.907.142 9.612 1.636 13.91a5.43 5.43 0 0 1-.437 4.541c-13.885 23.693-20.884 48.55-23.884 68.633-.648 4.339-4.901 7.147-9.151 6.061a102.68 102.68 0 0 0-25.442-3.18c-7.85 0-15.482.883-22.797 2.546-3.475.79-6.653-2.161-6.02-5.669 2.564-14.203 7.592-31.368 16.793-48.147a5.618 5.618 0 0 1 4.919-2.936h.033c17.955 0 32.511-14.556 32.511-32.511 0-18.704-15.794-33.719-34.773-32.435-15.704 1.063-28.56 13.519-30.09 29.185-.479 4.909.142 9.617 1.638 13.917a5.419 5.419 0 0 1-.436 4.531c-19.166 32.702-25.215 67.621-25.734 89.14-.077 3.19-1.472 6.18-3.828 8.332-18.577 16.972-30.143 40.85-30.143 67.302 0 51.503 43.843 93.254 97.926 93.254s97.926-41.751 97.926-93.254c0-25.751-10.962-49.063-28.684-65.938-2.384-2.271-3.757-5.399-3.685-8.691.336-15.07 4.365-42.983 19.123-69.895z" fill="#f5d7b7"/><g fill="#f27281"><ellipse cx="333.619" cy="302.449" rx="20.719" ry="16.5"/><ellipse cx="445.929" cy="302.449" rx="20.719" ry="16.5"/></g><path d="M254.355 358.409C90.308 329.17 101.397 144 147.755 87.693 82.749 105.148 35.044 162.659 35.044 230.922c0 82.107 69.01 148.668 154.139 148.668 33.885.001 50.684-11.554 65.172-21.181z" opacity=".1"/><g opacity=".1"><circle cx="228.679" cy="135.609" r="7.202"/><circle cx="280.429" cy="152.569" r="7.202"/><circle cx="252.119" cy="159.779" r="7.202"/><circle cx="114.399" cy="297.149" r="7.202"/><circle cx="73.589" cy="188.029" r="7.202"/><circle cx="137.499" cy="321.949" r="7.202"/><circle cx="157.019" cy="292.609" r="7.202"/></g><path d="M511.997 156.517c0-11.041-4.628-21.697-12.697-29.238-8.184-7.648-18.882-11.443-30.087-10.679-19.247 1.305-35.172 16.756-37.044 35.939-.541 5.538.037 10.986 1.717 16.207-15.342 26.492-21.703 52.828-24.337 70.374-15.507-3.946-32.125-4.444-47.902-1.437 2.265-10.987 6.582-25.991 14.749-41.17 21.55-.591 38.898-18.305 38.898-39.996 0-11.04-4.628-21.697-12.696-29.237-8.182-7.647-18.863-11.438-30.082-10.68-19.248 1.302-35.176 16.752-37.049 35.938-.475 4.867-.085 9.664 1.156 14.301a154.72 154.72 0 0 0-18.887-30.6 7.499 7.499 0 0 0-10.534-1.235 7.5 7.5 0 0 0-1.235 10.535c9.757 12.349 17.26 26.006 22.332 40.631-15.131 33.875-17.161 64.722-17.397 74.503-.027 1.126-.52 2.183-1.389 2.976-21.012 19.196-32.584 45.064-32.584 72.839 0 .901.016 1.807.041 2.714-10.615 2.233-18.86 7.709-27.493 13.449-13.707 9.112-29.242 19.44-60.293 19.44-8.803 0-17.427-.752-25.808-2.19 59.688-5.19 106.676-55.424 106.676-116.435 0-52.388-42.621-95.008-95.009-95.008-42.737 0-77.507 34.769-77.507 77.507 0 4.142 3.357 7.5 7.5 7.5s7.5-3.358 7.5-7.5c0-34.466 28.04-62.507 62.507-62.507 44.117 0 80.009 35.892 80.009 80.008 0 56.18-45.706 101.886-101.886 101.886-17.165 0-33.817-3.313-49.515-9.833-36.982-25.654-61.107-67.462-61.107-114.596 0-77.84 65.782-141.168 146.64-141.168 34.007 0 67.148 11.461 93.32 32.273a7.498 7.498 0 0 0 10.538-1.202 7.5 7.5 0 0 0-1.202-10.538c-28.815-22.914-65.273-35.533-102.656-35.533-89.128 0-161.64 70.057-161.64 156.168 0 37.149 13.504 71.303 36.007 98.141-32.4 13.042-56.636 42.155-63.103 76.93a26.35 26.35 0 0 0 5.658 21.718 26.342 26.342 0 0 0 20.316 9.531h23.424c4.143 0 7.5-3.358 7.5-7.5s-3.357-7.5-7.5-7.5H26.422a11.384 11.384 0 0 1-8.781-4.12 11.383 11.383 0 0 1-2.445-9.387c5.886-31.659 29.004-57.824 59.431-67.748a161.599 161.599 0 0 0 20.067 16.561 7.427 7.427 0 0 0 1.694 1.169c26.281 17.867 58.291 28.373 92.797 28.373 35.582 0 53.888-12.17 68.597-21.948 9.578-6.367 17.143-11.397 27.52-11.944.065-.003.127-.015.191-.02.061-.005.121-.003.182-.01.063-.007.122-.02.184-.029a7.553 7.553 0 0 0 1.467-.338 7.535 7.535 0 0 0 1.954-1.009 8.224 8.224 0 0 0 .564-.449 7.384 7.384 0 0 0 .755-.766 7.511 7.511 0 0 0 1.739-3.919 7.9 7.9 0 0 0 .058-.746 7.494 7.494 0 0 0-.001-.424c-.002-.06.003-.118 0-.178-.003-.059-.013-.115-.018-.173-.005-.067-.004-.133-.01-.201a82.825 82.825 0 0 1-.438-8.453c0-23.51 9.838-45.445 27.7-61.764 3.858-3.523 6.144-8.513 6.269-13.69.223-9.236 2.18-38.862 17.129-71.039l.028-.062c2.219-4.773 4.719-9.6 7.548-14.426a12.907 12.907 0 0 0 1.05-10.788c-1.193-3.432-1.616-7.041-1.256-10.725 1.169-11.974 11.113-21.617 23.132-22.43 7.023-.473 13.714 1.895 18.827 6.673 5.119 4.784 7.939 11.275 7.939 18.278 0 13.791-11.22 25.011-25.043 25.011a13.122 13.122 0 0 0-11.496 6.83c-10.466 19.086-15.347 37.954-17.598 50.421a12.369 12.369 0 0 0 3.632 11.165 12.488 12.488 0 0 0 11.432 3.149c14.603-3.32 30.244-3.112 44.719.587a14.935 14.935 0 0 0 11.942-2.02 14.91 14.91 0 0 0 6.484-10.199c2.453-16.417 8.424-41.184 22.938-65.95a12.931 12.931 0 0 0 1.05-10.796c-1.192-3.431-1.615-7.036-1.255-10.718 1.168-11.974 11.111-21.617 23.128-22.432 7.035-.476 13.718 1.893 18.831 6.673 5.12 4.784 7.94 11.276 7.94 18.279 0 13.791-11.22 25.011-25.044 25.011-4.779 0-9.184 2.617-11.496 6.831-17.81 32.478-19.844 64.341-20.043 73.335-.117 5.33 2.073 10.537 6.011 14.287 16.996 16.185 26.357 37.673 26.357 60.507 0 47.285-40.565 85.754-90.427 85.754H85.792c-4.143 0-7.5 3.358-7.5 7.5s3.357 7.5 7.5 7.5h296.563c58.133 0 105.427-45.198 105.427-100.754 0-26.98-11.014-52.326-31.012-71.369-.889-.846-1.384-1.975-1.359-3.094.179-8.046 1.986-36.349 17.688-65.512 21.55-.586 38.898-18.3 38.898-39.99zM389.772 309.946a22.912 22.912 0 0 0 17.274-7.866 7.5 7.5 0 0 0-.726-10.582 7.498 7.498 0 0 0-10.581.726c-1.508 1.73-3.684 2.722-5.968 2.722s-4.46-.992-5.968-2.722a7.5 7.5 0 0 0-11.307 9.856 22.92 22.92 0 0 0 17.276 7.866zm87.685-142.026a7.5 7.5 0 0 0 7.5-7.5v-7.847c0-4.142-3.357-7.5-7.5-7.5s-7.5 3.358-7.5 7.5v7.847a7.5 7.5 0 0 0 7.5 7.5zm-96.702 0a7.5 7.5 0 0 0 7.5-7.5v-7.847c0-4.142-3.357-7.5-7.5-7.5s-7.5 3.358-7.5 7.5v7.847a7.5 7.5 0 0 0 7.5 7.5z"/></svg>