<svg xmlns="http://www.w3.org/2000/svg" viewBox="0 0 512 512"><path fill="#fec478" d="M87.874 45.798L31 21.299V297.9l85.499-76.8 6.376-123.426z"/><path fill="#feb756" d="M424.75 47.673l-50.625 71.877 21.376 101.55L481 297.9V21.599z"/><path d="M199.3 133.799C177.312 71.354 124.459 20.329 48.999 3.6L31 0v21.299C53.704 74.4 36.936 35.212 116.499 221.1c30.244-27.181 12.745-11.445 86.4-77.701l-3.599-9.6z" fill="#fe8821"/><path d="M463.001 3.6C387.85 20.26 334.794 71.052 312.7 133.799l-3.6 9.6c73.645 66.247 56.156 50.52 86.4 77.701L481 21.599V0l-17.999 3.6z" fill="#e5741a"/><path d="M448.001 211l-22.8 30H376c-57.9 0-105 47.1-105 105h-30c0-57.9-47.1-105-105-105H87.4l-23.401-30L87.7 177.7c4.499-6 9.3-12.001 14.399-16.802 21.301-21.899 50.4-35.698 81.601-39.3 5.1-.298 9.599-.598 14.1-.598h116.4c4.501 0 9 .3 13.801.599 31.5 3.602 60.599 17.401 82.2 39.3C415 165.7 419.801 171.7 424.3 177.7l23.701 33.3z" fill="#fe9923"/><path d="M448.001 211l-22.8 30H376c-57.9 0-105 47.1-105 105h-15V121h58.2c4.501 0 9 .3 13.801.599 31.5 3.602 60.599 17.401 82.2 39.3C415 165.7 419.801 171.7 424.3 177.7l23.701 33.3z" fill="#fe8821"/><path d="M510.116 342.999c-4.801 20.7-18.3 38.401-36.899 48.9l-144.316 80.7-32.999-14.7L256 436l-1.199-.601-40.201 22.5-31.5 14.7-144.316-80.7c-18.6-10.499-32.098-28.2-36.899-48.9-4.799-20.999-.3-42.9 12.001-60.298L63.999 211H136c52.5 0 97.8 30.599 120 74.399C278.2 241.599 323.5 211 376 211h72.001l50.114 71.7c12.3 17.399 16.799 39.3 12.001 60.299z" fill="#fedbab"/><path d="M510.116 342.999c-4.801 20.7-18.3 38.401-36.899 48.9l-144.316 80.7-32.999-14.7L256 436V285.399C278.2 241.599 323.5 211 376 211h72.001l50.114 71.7c12.3 17.399 16.799 39.3 12.001 60.299z" fill="#fec478"/><path d="M321.7 459.699C308.2 435.7 283.299 421 256 421s-52.2 14.7-65.7 38.699l-7.2 12.9L256 512l72.9-39.401-7.2-12.9z" fill="#896748"/><path d="M321.7 459.699l7.2 12.9L256 512v-91c27.299 0 52.2 14.7 65.7 38.699z" fill="#73553a"/><path d="M180.975 346.8h-30c0-24.813-20.187-45-45-45v-30c41.355 0 75 33.645 75 75z" fill="#57555c"/><path d="M360.975 346.8h-30c0-41.355 33.645-75 75-75v30c-24.814 0-45 20.187-45 45z" fill="#3c3a41"/></svg>