<svg xmlns="http://www.w3.org/2000/svg" viewBox="0 0 512 512"><path d="M88.437 263.307l-12.713 3.449a158.488 158.488 0 0 0-64.137 34.801c-5.449 4.87-5.449 13.397 0 18.267a158.499 158.499 0 0 0 64.138 34.801l12.713 3.449-.001-94.767z" fill="#464d59"/><path d="M218.355 235.121h67.128c45.633 0 82.626-36.993 82.626-82.626s-36.993-82.626-82.626-82.626-82.626 36.993-82.626 82.626v67.128c.001 8.56 6.939 15.498 15.498 15.498z" fill="#8bcdd8"/><path d="M117.761 493.933a18.239 18.239 0 0 1-10.958-3.649c-8.108-6.059-9.768-17.545-3.707-25.653 13.912-18.613 13.912-36.772 13.912-64.261 0-10.122 8.206-18.328 18.328-18.328s18.328 8.206 18.328 18.328c0 29.742 0 57.833-21.207 86.207-3.6 4.814-9.114 7.356-14.696 7.356z" fill="#464d59"/><path d="M135.335 382.043c-10.122 0-18.328 8.206-18.328 18.328 0 11.943-.002 22.123-1.142 31.346a112.144 112.144 0 0 0 35.426 10.664c2.364-13.765 2.371-27.696 2.371-42.01 0-10.122-8.205-18.328-18.327-18.328z" opacity=".14"/><g fill="#464d59"><path d="M189.069 493.933a18.237 18.237 0 0 1-10.958-3.649c-8.108-6.06-9.768-17.545-3.707-25.653 13.913-18.613 13.913-36.773 13.913-64.261 0-10.122 8.206-18.328 18.328-18.328s18.328 8.206 18.328 18.328c0 29.742 0 57.833-21.208 86.207-3.6 4.814-9.114 7.356-14.696 7.356zM260.379 493.933a18.239 18.239 0 0 1-10.958-3.649c-8.108-6.059-9.768-17.545-3.707-25.653 13.911-18.613 13.911-36.772 13.911-64.261 0-10.122 8.206-18.328 18.328-18.328s18.328 8.206 18.328 18.328c0 29.742 0 57.833-21.207 86.207-3.6 4.814-9.113 7.356-14.695 7.356z"/></g><path d="M277.952 382.043c-10.122 0-18.328 8.206-18.328 18.328 0 17.146-.001 30.663-3.377 42.924h37.502c2.524-14.062 2.53-28.293 2.53-42.924.001-10.122-8.205-18.328-18.327-18.328z" opacity=".14"/><path d="M331.688 493.933a18.239 18.239 0 0 1-10.958-3.649c-8.108-6.059-9.768-17.545-3.707-25.653 13.912-18.613 13.912-36.772 13.912-64.261 0-10.122 8.206-18.328 18.328-18.328s18.328 8.206 18.328 18.328c0 29.742 0 57.833-21.207 86.207-3.6 4.814-9.114 7.356-14.696 7.356z" fill="#464d59"/><path d="M349.262 382.043c-10.122 0-18.328 8.206-18.328 18.328 0 15.638-.004 28.255-2.565 39.655a112.462 112.462 0 0 0 38.903-17.984c.315-7.143.317-14.357.317-21.671 0-10.122-8.205-18.328-18.327-18.328z" opacity=".14"/><path d="M301.32 423.64H165.717c-62.381 0-112.95-50.57-112.95-112.95 0-62.381 50.57-112.95 112.95-112.95H301.32c62.381 0 112.95 50.57 112.95 112.95 0 62.381-50.569 112.95-112.95 112.95z" fill="#f7d88b"/><path d="M206.644 382.043c-10.122 0-18.328 8.206-18.328 18.328 0 17.146-.001 30.662-3.378 42.924h37.502c2.525-14.062 2.53-28.293 2.53-42.924.002-10.122-8.204-18.328-18.326-18.328z" opacity=".14"/><path d="M165.717 197.739c-2.192 0-4.366.069-6.527.192-43.702 53.542-41.346 171.633 19.975 225.709h103.729c-61.393-54.139-63.685-172.449-19.822-225.901h-97.355z" fill="#464d59"/><path d="M301.32 197.739h-94.134c-9.408 16.57-14.684 35.157-14.684 54.795 0 69.639 66.331 126.094 148.155 126.094 20.414 0 39.862-3.515 57.558-9.871 10.191-16.969 16.056-36.832 16.056-58.067-.001-62.381-50.57-112.951-112.951-112.951z" opacity=".14"/><path d="M200.766 235.121h-67.128c-45.633 0-82.626-36.993-82.626-82.626s36.993-82.626 82.626-82.626 82.626 36.993 82.626 82.626v67.128c0 8.56-6.939 15.498-15.498 15.498z" fill="#abdfeb"/><ellipse cx="356.35" cy="230.359" rx="148.16" ry="126.09" fill="#f7d88b"/><g fill="#f27281"><ellipse cx="290.33" cy="228.379" rx="28.698" ry="22.853"/><ellipse cx="445.88" cy="228.379" rx="28.698" ry="22.853"/></g><g fill="#464d59"><circle cx="344.41" cy="39.179" r="21.11"/><circle cx="448.83" cy="39.179" r="21.11"/></g><path d="M488.142 159.219a7.5 7.5 0 0 0-12.093 8.875C489.755 186.772 497 208.303 497 230.361c0 65.393-63.098 118.594-140.655 118.594-76.437 0-138.825-51.675-140.613-115.767l-.001-.083c-.025-.912-.041-1.827-.041-2.744 0-47.184 32.854-88.017 80.285-107.1.126 3.363.383 6.336.745 8.734a7.502 7.502 0 0 0 8.536 6.296 7.5 7.5 0 0 0 6.296-8.536c-.414-2.741-.688-6.783-.669-11.627 13.204-3.813 27.286-6.016 41.918-6.322h.018c1.172-.025 2.348-.038 3.527-.038 15.099 0 29.916 2.035 43.967 5.934-.039 5.693.277 10.646.828 14.294a7.503 7.503 0 0 0 8.536 6.296 7.5 7.5 0 0 0 6.296-8.536c-.275-1.819-.485-4.224-.593-7.042 13.039 5.092 25.189 11.885 35.997 20.246a7.5 7.5 0 0 0 9.177-11.865c-13.316-10.301-28.451-18.445-44.715-24.212 1.323-14.827 5.356-32.785 14.835-45.605a28.478 28.478 0 0 0 18.156 6.515c15.777 0 28.613-12.836 28.613-28.613s-12.836-28.613-28.613-28.613-28.613 12.836-28.613 28.613c0 3.248.552 6.367 1.553 9.279-11.489 13.255-16.729 30.851-19.098 43.86a143.9 143.9 0 0 0-1.456 10.103c-14.422-3.717-29.52-5.653-44.87-5.653l-.067.001a90.462 90.462 0 0 0-35.189-27.017c1.51-2.993 3.218-5.844 5.163-8.475a28.478 28.478 0 0 0 18.156 6.515c15.777 0 28.613-12.836 28.613-28.613s-12.836-28.613-28.613-28.613-28.613 12.836-28.613 28.613c0 3.248.552 6.367 1.553 9.279-4.363 5.034-7.843 10.68-10.585 16.48a89.57 89.57 0 0 0-21.279-2.568 90.055 90.055 0 0 0-75.936 41.588c-16.037-24.994-44.072-41.588-75.91-41.588-49.695 0-90.126 40.431-90.126 90.126 0 29.926 14.664 56.486 37.18 72.887a120.294 120.294 0 0 0-26.99 40.993 165.384 165.384 0 0 0-47.116 29.587A19.772 19.772 0 0 0 0 310.69a19.773 19.773 0 0 0 6.588 14.725 165.367 165.367 0 0 0 47.127 29.592c10.6 26.694 30.482 48.726 55.639 62.103-.537 18.369-2.939 30.553-12.265 43.031-4.131 5.525-5.862 12.329-4.876 19.157.987 6.829 4.574 12.863 10.099 16.992a25.622 25.622 0 0 0 15.449 5.142c8.111 0 15.851-3.875 20.702-10.365 15.711-21.021 20.286-41.788 21.829-60.056 1.799.08 3.606.128 5.425.128h13.973c-1.303 10.29-4.22 19.539-11.294 29.002-8.525 11.407-6.182 27.624 5.224 36.148a25.615 25.615 0 0 0 15.45 5.143c8.111 0 15.851-3.875 20.701-10.365 15.75-21.071 20.277-41.777 21.818-59.928h19.41c-1.303 10.29-4.22 19.539-11.292 29.002-4.131 5.525-5.862 12.329-4.876 19.157.987 6.829 4.574 12.863 10.1 16.993a25.623 25.623 0 0 0 15.449 5.141c8.111 0 15.851-3.875 20.702-10.365 15.758-21.085 20.281-41.802 21.818-59.959a119.91 119.91 0 0 0 19.623-1.878c-1.232 11.4-4.185 21.117-11.506 30.911-4.131 5.525-5.862 12.329-4.876 19.157.987 6.829 4.574 12.863 10.1 16.993a25.623 25.623 0 0 0 15.449 5.141c8.111 0 15.851-3.875 20.702-10.365 21.674-29 22.644-58.695 22.694-85.229 16.86-13.055 30.308-30.583 38.39-51.204C471.121 335.045 512 286.724 512 230.361c0-25.272-8.25-49.873-23.858-71.142zM448.829 25.565c7.507 0 13.613 6.106 13.613 13.613s-6.107 13.613-13.613 13.613-13.613-6.106-13.613-13.613 6.106-13.613 13.613-13.613zm-104.421 0c7.507 0 13.613 6.106 13.613 13.613s-6.107 13.613-13.613 13.613-13.613-6.106-13.613-13.613 6.106-13.613 13.613-13.613zm-28.75 58.17a75.588 75.588 0 0 1 21.275 14.07c-8.579.92-16.94 2.448-25.031 4.52.741-6.011 1.938-12.369 3.756-18.59zm-30.175-6.366a74.62 74.62 0 0 1 15.924 1.726 124.662 124.662 0 0 0-3.157 13.222 147.73 147.73 0 0 0-1.899 14.777c-30.189 10.864-55.57 29.667-72.587 53.349v-7.948a89.684 89.684 0 0 0-6.044-32.444 75.08 75.08 0 0 1 67.763-42.682zM47.904 335.788a150.284 150.284 0 0 1-31.32-21.557A4.704 4.704 0 0 1 15 310.69c0-.794.206-2.31 1.585-3.543a150.273 150.273 0 0 1 31.325-21.559 120.647 120.647 0 0 0-.006 50.2zm10.608-183.293c0-41.425 33.701-75.126 75.126-75.126s75.126 33.701 75.126 75.126v35.375c-4.911 12.531-7.707 25.886-8.034 39.752h-67.092c-41.425 0-75.126-33.702-75.126-75.127zm67.936 329.592c-2.064 2.762-5.231 4.346-8.688 4.346-2.345 0-4.581-.745-6.469-2.156a10.753 10.753 0 0 1-4.232-7.123 10.753 10.753 0 0 1 2.044-8.031c11.165-14.938 14.14-29.662 15.01-45.391 6.82 2.518 13.93 4.43 21.263 5.683-1.361 16.689-5.299 34.437-18.928 52.672zm71.309 0c-2.064 2.762-5.231 4.346-8.688 4.346-2.346 0-4.581-.745-6.468-2.156-4.782-3.574-5.765-10.372-2.191-15.154 9.803-13.114 13.081-25.898 14.388-37.982h21.725c-1.477 15.671-5.587 33.313-18.766 50.946zm-15.693-65.947c-5.787-5.375-11.148-11.521-15.954-18.313a7.5 7.5 0 0 0-12.244 8.666 137.993 137.993 0 0 0 7.405 9.546C105.18 413.7 60.266 367.345 60.266 310.689c0-29.444 12.233-57.326 33.719-77.274a89.477 89.477 0 0 0 35.037 9.09c-11.752 41.935-9.049 91.659 7.594 132.285a7.501 7.501 0 0 0 9.783 4.098 7.5 7.5 0 0 0 4.098-9.783c-15.956-38.951-18.096-86.888-5.88-126.482h56.147c.195 0 .389-.014.584-.018 2.348 22.071 10.971 42.608 24.331 60.278.662 23.846 5.205 47.383 13.204 68.219 6.656 17.333 15.44 32.408 26.192 45.039l-83.011-.001zm87.002 65.947c-2.064 2.762-5.231 4.346-8.688 4.346-2.345 0-4.582-.745-6.47-2.156a10.753 10.753 0 0 1-4.232-7.123 10.749 10.749 0 0 1 2.044-8.031c9.802-13.114 13.08-25.898 14.386-37.982h21.725c-1.476 15.669-5.586 33.312-18.765 50.946zm71.31 0c-2.065 2.762-5.232 4.346-8.688 4.346-2.345 0-4.582-.745-6.47-2.156-2.316-1.73-3.819-4.261-4.233-7.123s.312-5.715 2.044-8.031c10.449-13.98 13.793-27.793 14.874-43.698a120.77 120.77 0 0 0 22.087-9.607c-.462 22.577-3.202 44.308-19.614 66.269zm-39.057-65.947h-15.518c-23.465-21.828-39.156-56.305-43.784-95.222 28.458 26.446 69.175 43.038 114.327 43.038 13.196 0 26.012-1.422 38.256-4.087-18.045 34.168-53.867 56.271-93.281 56.271zM285.9 203.507c0 4.143 3.357 7.5 7.5 7.5s7.5-3.357 7.5-7.5c0-3.396 2.763-6.159 6.159-6.159s6.159 2.763 6.159 6.159c0 4.143 3.357 7.5 7.5 7.5a7.5 7.5 0 0 0 7.5-7.5c0-11.667-9.492-21.159-21.159-21.159S285.9 191.84 285.9 203.507zm122.101 0c0 4.143 3.357 7.5 7.5 7.5s7.5-3.357 7.5-7.5c0-3.396 2.763-6.159 6.159-6.159s6.159 2.763 6.159 6.159c0 4.143 3.357 7.5 7.5 7.5s7.5-3.357 7.5-7.5c0-11.667-9.492-21.159-21.159-21.159s-21.159 9.492-21.159 21.159zm-31.057 11.038c-2.23 2.561-5.451 4.028-8.835 4.028s-6.604-1.469-8.836-4.029a7.5 7.5 0 0 0-11.307 9.857 26.72 26.72 0 0 0 20.143 9.172 26.716 26.716 0 0 0 20.143-9.173 7.5 7.5 0 1 0-11.308-9.855z"/></svg>