<?xml version="1.0"?>

<!DOCTYPE svg PUBLIC '-//W3C//DTD SVG 1.0//EN' 'http://www.w3.org/TR/2001/REC-SVG-20010904/DTD/svg10.dtd'>
<svg fill-opacity="1" xmlns:xlink="http://www.w3.org/1999/xlink" color-rendering="auto" color-interpolation="auto" text-rendering="auto" stroke="black" stroke-linecap="square" stroke-miterlimit="10" shape-rendering="auto" stroke-opacity="1" fill="black" stroke-dasharray="none" font-weight="normal" stroke-width="1" xmlns="http://www.w3.org/2000/svg" font-family="&apos;Dialog&apos;" font-style="normal" stroke-linejoin="miter" font-size="12" stroke-dashoffset="0" image-rendering="auto">
  <!--Unicode Character 'RAISED HAND' (U+270B)-->
  <defs id="genericDefs" />
  <g>
    <g>
      <path d="M204.8906 219.7969 Q204.8906 224.0156 200.3906 229.3594 Q196.7344 233.5781 193.0781 237.6562 Q189.9844 243.5625 183.6562 255.5156 Q162.2812 295.5938 144.2812 308.8125 Q138.375 313.1719 123.8906 319.0781 Q101.5312 328.2188 90.1406 328.2188 Q68.9062 328.2188 55.8281 323.7188 Q55.6875 323.7188 46.2656 319.3594 Q27.5625 310.7812 20.25 295.7344 Q14.0625 283.0781 14.0625 260.7188 L14.0625 223.0312 Q14.0625 222.3281 15.6094 188.4375 Q15.6094 176.0625 17.7188 151.4531 Q18.9844 144 24.6094 134.4375 Q31.3594 123.1875 37.5469 123.1875 Q38.9531 123.1875 41.4844 124.3125 Q44.0156 113.7656 46.125 109.125 Q50.0625 101.25 57.2344 98.4375 Q58.6406 97.875 65.1094 98.1562 Q69.3281 88.1719 74.3906 84.7969 Q79.4531 81.4219 90.2812 81.4219 Q94.9219 81.4219 99.1406 86.7656 Q104.625 93.5156 106.5938 94.6406 L113.9062 93.2344 Q131.2031 99.2812 133.875 114.0469 Q134.5781 117.5625 135.2812 145.5469 Q135.7031 162.8438 136.125 180.1406 Q136.9688 199.9688 139.0781 214.4531 Q139.3594 216 145.2656 234.5625 Q147.7969 233.2969 149.4844 229.5 Q150.6094 226.4062 151.875 223.1719 Q156.0938 214.4531 165.0938 207.1406 Q175.0781 198.9844 183.7969 198.9844 Q187.4531 198.9844 194.5547 202.2188 Q201.6562 205.4531 203.2734 208.4062 Q204.8906 211.3594 204.8906 219.7969 ZM94.5 194.625 L94.5 111.2344 Q94.5 108 93.375 103.3594 Q91.6875 96.6094 91.5469 95.4844 Q86.9062 93.6562 85.0781 93.6562 Q82.2656 93.6562 79.1016 97.0312 Q75.9375 100.4062 75.9375 103.2188 Q75.9375 100.6875 78.3281 111.6562 Q81.9844 128.25 82.2656 153.4219 Q81.9844 129.6562 81.9844 195.75 L94.5 194.625 ZM69.8906 197.4375 L69.8906 120.0938 Q69.8906 118.9688 67.2188 112.6406 Q61.5938 109.9688 60.3281 109.9688 Q56.9531 109.9688 54.4219 114.4688 Q52.1719 118.4062 52.1719 122.0625 Q52.1719 120.375 55.5469 153.2812 Q56.6719 164.1094 58.2188 199.9688 L69.8906 197.4375 ZM197.7188 217.6875 Q191.5312 210.6562 185.7656 210.6562 Q171.5625 210.6562 162.1406 226.2656 Q154.9688 239.625 147.9375 253.125 L145.5469 253.125 Q143.1562 253.125 141.0469 251.5781 Q136.8281 248.4844 129.7969 221.4844 Q126.1406 207.5625 125.8594 198 L123.75 126.1406 Q123.1875 106.7344 114.4688 106.7344 Q104.9062 106.7344 106.5938 106.875 Q107.2969 146.25 107.2969 144 Q107.2969 146.6719 106.8047 152.0156 Q106.3125 157.3594 106.3125 160.0312 L106.3125 196.4531 Q115.875 200.25 115.875 204.3281 Q115.875 207.1406 113.7656 207.1406 Q110.6719 207.1406 104.9062 205.3828 Q99.1406 203.625 96.0469 203.625 Q61.1719 203.625 39.7969 220.9219 Q38.25 222.1875 35.2969 224.5781 L32.2031 219.7969 Q32.7656 216.9844 38.3906 211.7812 Q42.6094 208.4062 46.6875 204.8906 Q46.8281 204.4688 46.8281 203.7656 Q46.8281 165.7969 42.75 135.8438 L40.2188 134.1562 Q30.5156 134.2969 27.5625 162 Q26.7188 180 25.7344 198 Q25.0312 204.1875 25.0312 204.8906 L25.0312 260.0156 Q25.0312 264.9375 26.5781 272.8125 Q30.0938 290.8125 37.8984 299.3203 Q45.7031 307.8281 63.4219 312.3281 Q72.4219 314.5781 84.375 314.5781 Q94.7812 314.5781 106.5938 310.6406 Q117 306.7031 127.5469 302.625 Q130.3594 301.7812 135.7031 299.25 Q148.6406 291.2344 160.875 273.6562 Q167.0625 264.6562 179.2969 242.2969 Q183.375 234.8438 197.7188 217.6875 ZM111.2344 243.4219 Q90.8438 265.9219 90.8438 275.2031 Q90.8438 277.3125 91.2656 281.3906 Q91.6875 285.4688 91.6875 287.4375 Q89.5781 288.4219 85.3594 290.1094 L81 271.6875 Q85.6406 261.7031 90.4219 251.7188 Q95.7656 242.4375 105.75 235.6875 Q107.8594 238.0781 111.2344 243.4219 Z" stroke="none" />
    </g>
  </g>
</svg>
